<svg width="24" height="24" viewBox="0 0 24 24" fill="none" xmlns="http://www.w3.org/2000/svg">
<path fill-rule="evenodd" clip-rule="evenodd" d="M14.167 6.167H13V5C13 3.895 13.895 3 15 3H16.167V4.167C16.167 5.271 15.271 6.167 14.167 6.167V6.167Z" stroke="#534A4A" stroke-width="1.5" stroke-linecap="round" stroke-linejoin="round"/>
<path d="M12.9997 12.9987C10.8427 12.9987 9.09473 11.2508 9.09473 9.09375" stroke="#534A4A" stroke-width="1.5" stroke-linecap="round" stroke-linejoin="round"/>
<path d="M9.09473 9.09306C9.09473 7.38906 9.87573 6.16406 11.4377 6.16406" stroke="#534A4A" stroke-width="1.5" stroke-linecap="round" stroke-linejoin="round"/>
<path d="M13 12.9987C15.157 12.9987 16.905 11.2508 16.905 9.09375" stroke="#534A4A" stroke-width="1.5" stroke-linecap="round" stroke-linejoin="round"/>
<path d="M16.9045 9.09306C16.9045 7.38906 16.1235 6.16406 14.5615 6.16406" stroke="#534A4A" stroke-width="1.5" stroke-linecap="round" stroke-linejoin="round"/>
<path d="M14.5625 6.16797C13.7815 6.16797 13.3385 6.41797 13.0005 6.41797C12.6625 6.41797 12.2195 6.16797 11.4385 6.16797" stroke="#534A4A" stroke-width="1.5" stroke-linecap="round" stroke-linejoin="round"/>
<path d="M20.625 13H7.375C6.27 13 5.375 13.895 5.375 15V15C5.375 16.105 6.27 17 7.375 17H20.625" stroke="#534A4A" stroke-width="1.5" stroke-linecap="round" stroke-linejoin="round"/>
<path d="M20.1201 13V17" stroke="#534A4A" stroke-width="1.5" stroke-linecap="round" stroke-linejoin="round"/>
<path d="M18.625 17H5.375C4.27 17 3.375 17.895 3.375 19V19C3.375 20.105 4.27 21 5.375 21H18.625" stroke="#534A4A" stroke-width="1.5" stroke-linecap="round" stroke-linejoin="round"/>
<path d="M18.1201 17V21" stroke="#534A4A" stroke-width="1.5" stroke-linecap="round" stroke-linejoin="round"/>
</svg>
