<svg width="24" height="24" viewBox="0 0 24 24" fill="none" xmlns="http://www.w3.org/2000/svg">
<path d="M4.75 10.0023H7.647C8.732 10.0023 9.611 9.12331 9.611 8.03831V8.03831C9.611 7.51731 9.404 7.01731 9.036 6.64931L7.332 4.94531" stroke="#534A4A" stroke-width="1.4423" stroke-linecap="round" stroke-linejoin="round"/>
<path d="M15.3694 14.472L14.1354 12.621C13.9124 12.286 13.5364 12.085 13.1334 12.085V12.085C12.6774 12.085 12.2604 11.827 12.0564 11.419L11.9644 11.234C11.7944 10.895 11.7944 10.496 11.9644 10.157L12.7514 8.58397C12.9554 8.17597 13.3724 7.91797 13.8284 7.91797H16.8894" stroke="#534A4A" stroke-width="1.4423" stroke-linecap="round" stroke-linejoin="round"/>
<path d="M14 22H8" stroke="#534A4A" stroke-width="1.5" stroke-linecap="round" stroke-linejoin="round"/>
<path d="M4 17L4.636 16.364C8.15 19.878 13.85 19.879 17.364 16.364C20.878 12.85 20.878 7.15 17.364 3.636C17.023 3.295 16.656 2.997 16.278 2.722L17 2" stroke="#534A4A" stroke-width="1.5" stroke-linecap="round" stroke-linejoin="round"/>
<path d="M11 19V22" stroke="#534A4A" stroke-width="1.5" stroke-linecap="round" stroke-linejoin="round"/>
<path d="M15.4194 5.58449C17.8602 8.02527 17.8602 11.9826 15.4194 14.4233C12.9786 16.8641 9.02135 16.8641 6.58059 14.4233C4.13981 11.9825 4.13981 8.02526 6.58059 5.58449C9.02136 3.14371 12.9786 3.14371 15.4194 5.58449" stroke="#534A4A" stroke-width="1.4423" stroke-linecap="round" stroke-linejoin="round"/>
</svg>
