<svg width="24" height="24" viewBox="0 0 24 24" fill="none" xmlns="http://www.w3.org/2000/svg">
<path d="M8.294 10.7026C8.294 10.5396 8.162 10.4086 8 10.4086C7.837 10.4096 7.706 10.5416 7.706 10.7036C7.706 10.8666 7.838 10.9976 8 10.9976C8.162 10.9976 8.294 10.8656 8.294 10.7026" stroke="#534A4A" stroke-width="1.5" stroke-linecap="round" stroke-linejoin="round"/>
<path d="M8 10.411V5.5C8 4.119 9.119 3 10.5 3V3C11.881 3 13 4.119 13 5.5V6.072" stroke="#534A4A" stroke-width="1.5" stroke-linecap="round" stroke-linejoin="round"/>
<path d="M10.1621 15.1813C10.9691 15.7393 11.9451 16.0703 13.0001 16.0703C13.6621 16.0703 14.2901 15.9353 14.8681 15.7013L17.8771 18.7063C18.0651 18.8933 18.3191 18.9983 18.5831 18.9983H20.0001C20.5521 18.9983 21.0001 18.5503 21.0001 17.9983V16.5863C21.0001 16.3203 20.8941 16.0663 20.7061 15.8783L17.6621 12.8383C17.8721 12.2873 18.0001 11.6953 18.0001 11.0703C18.0001 8.30931 15.7611 6.07031 13.0001 6.07031C12.2161 6.07031 11.4841 6.26631 10.8241 6.58831" stroke="#534A4A" stroke-width="1.5" stroke-linecap="round" stroke-linejoin="round"/>
<path fill-rule="evenodd" clip-rule="evenodd" d="M6.00375 15.2691C5.44675 15.0261 4.92075 14.6871 4.46475 14.2311C2.51175 12.2781 2.51175 9.11306 4.46475 7.16006C6.41775 5.20706 9.58275 5.20706 11.5358 7.16006C13.4888 9.11306 13.4888 12.2781 11.5358 14.2311C11.0818 14.6851 10.5577 15.0221 10.0037 15.2651L10.0068 19.5021C10.0068 19.7681 9.90175 20.0221 9.71375 20.2101L8.71575 21.2081C8.32475 21.5991 7.69175 21.5991 7.30175 21.2081L6.29975 20.2061C6.11275 20.0191 6.00675 19.7651 6.00675 19.5001L6.00375 15.2691Z" stroke="#534A4A" stroke-width="1.5" stroke-linecap="round" stroke-linejoin="round"/>
</svg>
