<svg width="187" height="60" viewBox="0 0 187 60" fill="none" xmlns="http://www.w3.org/2000/svg">
<path d="M3.34239 57.1947H2.55492V54.3851C2.55492 54.2849 2.55492 54.2848 2.55492 54.1845C2.45649 54.1845 2.45649 54.1845 2.35805 54.1845H1.0784C0.979966 54.1845 0.881538 54.1845 0.881538 54.1845C0.881538 54.2848 0.881538 54.2849 0.881538 54.3851V57.1947H0.0940575V53.4822H3.34239V57.1947Z" fill="#FF002E"/>
<path d="M8.16568 55.2843C8.16568 56.388 7.47654 57.291 6.39376 57.291C5.80315 57.291 5.31098 56.99 5.01567 56.4883C5.01567 56.689 5.11411 56.99 5.11411 57.291V58.7961H4.32663V53.4782H5.11411C5.11411 53.7791 5.11411 54.0802 5.11411 54.1805C5.40941 53.6788 5.80315 53.3778 6.4922 53.3778C7.47654 53.3778 8.16568 54.1805 8.16568 55.2843ZM5.11411 55.2843C5.11411 55.9866 5.60628 56.4883 6.29532 56.4883C6.98436 56.4883 7.3781 55.9866 7.3781 55.2843C7.3781 54.5818 6.98436 54.0802 6.29532 54.0802C5.60628 54.0802 5.11411 54.5818 5.11411 55.2843Z" fill="#FF002E"/>
<path d="M12.5941 55.2883C12.5941 56.392 11.7082 57.295 10.6255 57.295C9.54262 57.295 8.6568 56.4923 8.6568 55.2883C8.6568 54.0842 9.54262 53.2815 10.6255 53.2815C11.7082 53.2815 12.5941 54.1845 12.5941 55.2883ZM9.44426 55.2883C9.44426 55.9906 9.93644 56.4923 10.6255 56.4923C11.3145 56.4923 11.8066 55.9906 11.8066 55.2883C11.8066 54.5859 11.3145 54.0842 10.6255 54.0842C9.93644 54.0842 9.44426 54.5859 9.44426 55.2883Z" fill="#FF002E"/>
<path d="M16.7264 55.2843V55.4849H14.3641C14.0688 55.4849 13.9703 55.4849 13.8719 55.3846V55.4849C13.9703 56.1873 14.3641 56.4883 14.9547 56.4883C15.3484 56.4883 15.6437 56.2877 16.0374 55.9866L16.5296 56.4883C16.1359 56.99 15.6437 57.291 14.9547 57.291C13.8719 57.291 13.0844 56.4883 13.0844 55.3846C13.0844 54.1805 13.7734 53.3778 14.9547 53.3778C16.0374 53.3778 16.7264 54.0801 16.7264 55.2843ZM13.9703 54.9832C14.0688 54.9832 14.2656 54.8829 14.4625 54.8829H15.3484C15.7422 54.8829 15.8406 54.8829 15.939 54.9832C15.939 54.4816 15.5453 54.0802 14.9547 54.0802C14.3641 54.0802 13.9703 54.3812 13.9703 54.9832Z" fill="#FF002E"/>
<path d="M19.4868 56.689L19.29 56.087C19.1916 55.6856 19.0931 55.5853 18.7978 55.5853H18.5025C18.4041 55.5853 18.3057 55.5853 18.3057 55.5853C18.3057 55.6856 18.3057 55.786 18.3057 55.8862V57.1906H17.5182V53.4782H18.3057V54.5818C18.3057 54.6822 18.3057 54.7826 18.3057 54.8829H18.7978C19.0931 54.8829 19.1916 54.7826 19.29 54.4816L19.5852 53.7791C19.6837 53.4782 19.8806 53.3778 20.2743 53.3778H20.668V54.0802H20.4712C20.2743 54.0802 20.1758 54.1805 20.0774 54.3812L19.979 54.6822C19.8806 54.9832 19.5853 55.0835 19.1916 55.1839C19.6838 55.1839 19.8806 55.2843 19.979 55.6856L20.1759 56.1873C20.2743 56.388 20.2742 56.388 20.5696 56.388H20.7665V57.0904H20.2743C19.7821 57.1907 19.5853 56.99 19.4868 56.689Z" fill="#FF002E"/>
<path d="M24.4078 53.4822V54.1845H23.2266C23.1282 54.1845 23.0297 54.1845 23.0297 54.1845C23.0297 54.2848 23.0297 54.2849 23.0297 54.3851V57.1947H22.2422V54.3851C22.2422 54.2849 22.2422 54.2848 22.2422 54.1845C22.1438 54.1845 22.1438 54.1845 22.0453 54.1845H20.8641V53.4822H24.4078Z" fill="#FF002E"/>
<path d="M31.0999 55.2883C31.0999 56.392 30.214 57.295 29.1312 57.295C27.95 57.295 27.1625 56.4923 27.1625 55.2883C27.1625 54.0842 28.0484 53.2815 29.1312 53.2815C30.214 53.3818 31.0999 54.1845 31.0999 55.2883ZM27.95 55.2883C27.95 55.9906 28.4421 56.4923 29.1312 56.4923C29.8202 56.4923 30.3124 55.9906 30.3124 55.2883C30.3124 54.5859 29.8202 54.0842 29.1312 54.0842C28.4421 54.0842 27.95 54.5859 27.95 55.2883Z" fill="#FF002E"/>
<path d="M34.7419 53.4822V54.1845H33.5607C33.4623 54.1845 33.3638 54.1845 33.3638 54.1845C33.3638 54.2848 33.3638 54.2849 33.3638 54.3851V57.1947H32.5764V54.3851C32.5764 54.2849 32.5764 54.2848 32.5764 54.1845C32.4779 54.1845 32.4779 54.1845 32.3795 54.1845H31.1983V53.4822H34.7419Z" fill="#FF002E"/>
<path d="M42.4204 52.3742C43.7984 52.3742 44.8813 53.3776 44.8813 54.7824C44.8813 56.1871 43.7984 57.1905 42.5188 57.1905C41.9282 57.1905 41.3376 56.9898 40.9439 56.4881H40.8454V60H39.9595V55.1837C39.9595 53.478 40.8454 52.3742 42.4204 52.3742ZM42.4204 56.3878C43.3064 56.3878 43.8969 55.6854 43.8969 54.7824C43.8969 53.8793 43.3064 53.1769 42.4204 53.1769C41.5345 53.1769 40.8454 53.8793 40.8454 54.7824C40.8454 55.6854 41.5345 56.3878 42.4204 56.3878Z" fill="#FF002E"/>
<path d="M45.7667 54.7824C45.7667 53.3776 46.9479 52.3742 48.2276 52.3742C49.6057 52.3742 50.6884 53.3776 50.6884 54.7824C50.6884 56.1871 49.5072 57.1905 48.2276 57.1905C46.8495 57.1905 45.7667 56.1871 45.7667 54.7824ZM48.2276 56.3878C49.1135 56.3878 49.7041 55.6854 49.7041 54.7824C49.7041 53.8793 49.1135 53.1769 48.2276 53.1769C47.3417 53.1769 46.751 53.8793 46.751 54.7824C46.6527 55.6854 47.3417 56.3878 48.2276 56.3878Z" fill="#FF002E"/>
<path d="M54.0347 57.1905C52.6566 57.1905 51.5739 56.1871 51.5739 54.7824C51.5739 53.3776 52.6566 52.3742 54.0347 52.3742C55.1175 52.3742 56.1018 52.9763 56.3971 54.0799H55.5113C55.3144 53.478 54.7237 53.1769 54.1332 53.1769C53.1488 53.1769 52.5582 53.8793 52.5582 54.7824C52.5582 55.6854 53.1488 56.3878 54.1332 56.3878C54.7237 56.3878 55.3144 56.0868 55.5113 55.3844H56.4956C56.1018 56.6888 55.1175 57.1905 54.0347 57.1905Z" fill="#FF002E"/>
<path d="M59.7478 56.5884L58.2713 53.3775V57.0901H57.3854V52.4746H58.7635L60.24 55.6853L61.7165 52.4746H63.193V57.0901H62.3071V53.3775H62.2087L60.7322 56.5884H59.7478Z" fill="#FF002E"/>
<path d="M64.1767 54.7824C64.1767 53.3776 65.3579 52.3742 66.6375 52.3742C68.0156 52.3742 69.0984 53.3776 69.0984 54.7824C69.0984 56.1871 67.9172 57.1905 66.6375 57.1905C65.2595 57.1905 64.1767 56.1871 64.1767 54.7824ZM66.6375 56.3878C67.5234 56.3878 68.1141 55.6854 68.1141 54.7824C68.1141 53.8793 67.5234 53.1769 66.6375 53.1769C65.7516 53.1769 65.161 53.8793 65.161 54.7824C65.0626 55.6854 65.7516 56.3878 66.6375 56.3878Z" fill="#FF002E"/>
<path d="M69.5858 57.1944V56.1911C69.7827 56.1911 69.9795 56.0907 70.078 55.9903C70.2749 55.7897 70.3734 55.4886 70.3734 54.987L70.4717 54.2846C70.6686 53.4819 70.9639 52.5788 72.1452 52.5788H73.9169V57.0941H73.031V53.2812H72.4405C71.7514 53.2812 71.5545 53.4819 71.4561 54.4853L71.3576 55.1876C71.2593 55.7897 71.0624 56.3917 70.7671 56.6928C70.4717 56.9937 70.078 57.1944 69.5858 57.1944Z" fill="#FF002E"/>
<path d="M75.0037 54.7824C75.0037 53.3776 76.185 52.3742 77.4646 52.3742C78.8426 52.3742 79.9255 53.3776 79.9255 54.7824C79.9255 56.1871 78.7443 57.1905 77.4646 57.1905C76.185 57.1905 75.0037 56.1871 75.0037 54.7824ZM77.563 56.3878C78.4489 56.3878 79.0395 55.6854 79.0395 54.7824C79.0395 53.8793 78.4489 53.1769 77.563 53.1769C76.6772 53.1769 76.0865 53.8793 76.0865 54.7824C75.9881 55.6854 76.5787 56.3878 77.563 56.3878Z" fill="#FF002E"/>
<path d="M81.109 58.2942H80.223V56.2874H80.8136C81.109 55.9863 81.2073 55.585 81.3058 54.983L81.5027 54.0799C81.6995 53.2773 81.9949 52.4746 83.1761 52.4746H84.9479V56.2874H85.637V58.2942H84.751V57.0901H81.109V58.2942ZM84.062 56.2874V53.2773H83.1761C82.5854 53.2773 82.3886 53.6786 82.2902 54.1803L82.0932 55.0834C81.9949 55.585 81.798 55.9864 81.6011 56.1871V56.2874H84.062Z" fill="#FF002E"/>
<path d="M88.784 57.1917C87.3072 57.1917 86.3228 56.1883 86.3228 54.7836C86.3228 53.3789 87.4056 52.3755 88.784 52.3755C89.8666 52.3755 91.1464 53.0778 91.1464 54.8839V55.0846H87.2087C87.3072 55.8873 87.8978 56.389 88.784 56.389C89.2763 56.389 89.9647 56.1883 90.1618 55.6866H91.0474C90.7522 56.7904 89.6696 57.1917 88.784 57.1917ZM87.2087 50.7701H88.1931V51.7734H87.2087V50.7701ZM90.1618 54.3822C90.0637 53.6799 89.4725 53.1782 88.685 53.1782C87.8978 53.1782 87.3072 53.6799 87.2087 54.3822H90.1618ZM89.1773 50.7701H90.1618V51.7734H89.1773V50.7701Z" fill="#FF002E"/>
<path d="M95.3798 52.4746V54.3809H96.1672L97.2508 52.4746H98.2344L96.8566 54.6819L98.3334 57.0901H97.3489L96.1672 55.1836H95.3798V57.0901H94.4942V55.1836H93.8048L92.6241 57.0901H91.6395L93.0174 54.6819L91.7385 52.4746H92.7222L93.8048 54.3809H94.4942V52.4746H95.3798Z" fill="#FF002E"/>
<path d="M98.9247 55.0873V52.5788H99.8102V53.8832C100.204 53.3815 100.697 53.1809 101.287 53.1809C102.37 53.1809 103.256 53.9836 103.256 55.1876C103.256 56.3917 102.37 57.2947 101.09 57.2947C99.9092 57.1944 98.9247 56.2914 98.9247 55.0873ZM101.189 56.3917C101.877 56.3917 102.469 55.89 102.469 55.1876C102.469 54.4853 101.976 53.9836 101.189 53.9836C100.5 53.9836 99.9092 54.4853 99.9092 55.1876C99.9092 55.89 100.402 56.3917 101.189 56.3917Z" fill="#FF002E"/>
<path fill-rule="evenodd" clip-rule="evenodd" d="M18.7964 16.1473H28.443L25.5885 27.7867H15.9418L18.7964 16.1473ZM20.5682 18.5555L18.8949 25.5792H23.7182L25.3916 18.5555H20.5682Z" fill="#FF002E"/>
<path fill-rule="evenodd" clip-rule="evenodd" d="M37.2998 19.8599L31.9845 27.887H29.3267L37.103 16.1473H39.2685L41.4342 27.887H38.7764L37.2998 19.8599Z" fill="#FF002E"/>
<path fill-rule="evenodd" clip-rule="evenodd" d="M49.3122 20.8632H56.0058L54.3323 27.8869H45.2764L48.131 16.2476H50.5918L49.3122 20.8632ZM52.3637 25.4788L52.9543 23.171H48.7216L48.131 25.4788H52.3637Z" fill="#FF002E"/>
<path fill-rule="evenodd" clip-rule="evenodd" d="M71.2635 25.4788L73.5275 16.1473H75.89L73.1338 27.7867H58.5654L61.42 16.1473H63.8809L61.6169 25.4788H65.1606L67.4246 16.1473H69.8855L67.6214 25.4788H71.2635Z" fill="#FF002E"/>
<path fill-rule="evenodd" clip-rule="evenodd" d="M85.2421 23.171H81.0094L79.8282 27.887H77.3673L80.3203 16.1473H89.3761L86.5218 27.7867H84.0609L85.2421 23.171ZM86.3248 18.4551H82.0922L81.5016 20.7629H85.7343L86.3248 18.4551Z" fill="#FF002E"/>
<path fill-rule="evenodd" clip-rule="evenodd" d="M103.353 16.1491L100.499 27.7884H98.0382L99.219 23.0725H98.6286L94.3961 27.7884H91.4425L95.6758 23.0725H93.2145L94.3961 18.3566H93.2145L93.8048 16.0487L103.353 16.1491ZM96.7585 18.4569L96.1681 20.7647H99.8093L100.401 18.4569H96.7585Z" fill="#FF002E"/>
<path fill-rule="evenodd" clip-rule="evenodd" d="M12.694 20.8632C12.8908 20.8632 12.9893 20.8632 13.0877 21.0639C13.1862 21.1643 13.1862 21.2645 13.1862 21.4653L11.8081 27.2849C11.8081 27.4856 11.7096 27.5859 11.5128 27.6863C11.4143 27.7866 11.2174 27.8869 11.0206 27.8869H2.55522L5.40982 16.2476H14.4658L13.8752 18.5555H7.18165L6.59104 20.8632H12.694ZM5.50826 25.5792H9.74096L10.3315 23.2714H6.09887L5.50826 25.5792Z" fill="#FF002E"/>
<path fill-rule="evenodd" clip-rule="evenodd" d="M6.10294 42.9352L8.36696 33.6037H4.72486L2.46087 43.0355H0L2.26399 33.6037H1.08278L1.67339 31.2959H11.32L8.46542 43.0355L6.10294 42.9352Z" fill="#FF002E"/>
<path fill-rule="evenodd" clip-rule="evenodd" d="M22.4454 31.2959L21.9533 33.6037H17.0315L16.7363 34.8078H21.6579L21.0674 37.1156H16.2441L15.3582 40.6275H20.1815L19.6893 42.9352H12.4051L15.2597 31.2959H22.4454Z" fill="#FF002E"/>
<path fill-rule="evenodd" clip-rule="evenodd" d="M28.2484 38.3196L27.1657 42.9352H24.7049L26.9688 33.6037H25.7876L26.3782 31.2959H36.0248L34.3514 38.3196H28.2484ZM29.4297 33.6037L28.8391 35.9114H32.4812L33.0718 33.6037H29.4297Z" fill="#FF002E"/>
<path fill-rule="evenodd" clip-rule="evenodd" d="M47.1485 31.2977L46.558 33.6054H41.7346L41.4394 34.8096H46.2626L45.7705 37.1173H40.8487L40.0613 40.6292H44.8846L44.2939 42.937H37.1082L39.8643 31.1973L47.1485 31.2977Z" fill="#FF002E"/>
<path fill-rule="evenodd" clip-rule="evenodd" d="M52.1687 36.5135L50.5938 42.9352H48.2313L50.9875 31.2959H54.039L55.1218 39.4233L60.0435 31.2959H63.095L60.2403 42.9352H57.878L59.4529 36.5135L55.4171 42.9352H53.0546L52.1687 36.5135Z" fill="#FF002E"/>
<path fill-rule="evenodd" clip-rule="evenodd" d="M74.2187 31.1973L73.6282 33.6054H68.8049L68.5096 34.7092H73.3328L72.8407 37.1173H68.0174L67.1315 40.6292L71.9548 40.5289L71.4626 42.937H64.1785L67.033 31.1973H74.2187Z" fill="#FF002E"/>
<path fill-rule="evenodd" clip-rule="evenodd" d="M84.7538 31.1973H87.1164L84.3601 42.937H81.8993L83.0805 38.2211H78.8478L77.6666 42.937H75.3042L78.0603 31.1973H80.5212L79.34 35.9133H83.5727L84.7538 31.1973Z" fill="#FF002E"/>
<path fill-rule="evenodd" clip-rule="evenodd" d="M95.9746 38.2193H91.7412L90.5605 42.9352H88.0994L90.9537 31.2959H100.01L97.1553 42.9352H94.6949L95.9746 38.2193ZM97.1553 33.6037H92.9228L92.3325 35.9114H96.565L97.1553 33.6037Z" fill="#FF002E"/>
<path fill-rule="evenodd" clip-rule="evenodd" d="M112.705 3.61221C113.688 3.61221 114.476 2.80949 114.476 1.8061C114.476 0.802711 113.688 0 112.705 0C111.72 0 110.933 0.802711 110.933 1.8061C110.933 2.80949 111.72 3.61221 112.705 3.61221Z" fill="#FF002E"/>
<path fill-rule="evenodd" clip-rule="evenodd" d="M116.547 5.30648C117.532 5.30648 118.319 4.50377 118.319 3.50038C118.319 2.49699 117.532 1.69427 116.547 1.69427C115.563 1.69427 114.775 2.49699 114.775 3.50038C114.775 4.50377 115.563 5.30648 116.547 5.30648Z" fill="#F4C1CA"/>
<path fill-rule="evenodd" clip-rule="evenodd" d="M118.228 9.32089C119.213 9.32089 120 8.5182 120 7.51479C120 6.5114 119.213 5.70868 118.228 5.70868C117.243 5.70868 116.456 6.5114 116.456 7.51479C116.456 8.5182 117.243 9.32089 118.228 9.32089Z" fill="#F791A3"/>
<path fill-rule="evenodd" clip-rule="evenodd" d="M116.547 13.2461C117.532 13.2461 118.319 12.4434 118.319 11.44C118.319 10.4366 117.532 9.63387 116.547 9.63387C115.563 9.63387 114.775 10.4366 114.775 11.44C114.775 12.4434 115.563 13.2461 116.547 13.2461Z" fill="#F8788F"/>
<path fill-rule="evenodd" clip-rule="evenodd" d="M112.702 14.9403C113.687 14.9403 114.474 14.1376 114.474 13.1342C114.474 12.1308 113.687 11.3281 112.702 11.3281C111.718 11.3281 110.93 12.1308 110.93 13.1342C110.93 14.1376 111.718 14.9403 112.702 14.9403Z" fill="#F9607C"/>
<path fill-rule="evenodd" clip-rule="evenodd" d="M108.765 13.2461C109.749 13.2461 110.537 12.4434 110.537 11.44C110.537 10.4366 109.749 9.63387 108.765 9.63387C107.78 9.63387 106.993 10.4366 106.993 11.44C106.993 12.4434 107.78 13.2461 108.765 13.2461Z" fill="#FB4969"/>
<path fill-rule="evenodd" clip-rule="evenodd" d="M107.1 9.33689C108.083 9.33689 108.871 8.53419 108.871 7.53077C108.871 6.52737 108.083 5.72466 107.1 5.72466C106.115 5.72466 105.328 6.52737 105.328 7.53077C105.328 8.53419 106.115 9.33689 107.1 9.33689Z" fill="#FC3055"/>
<path fill-rule="evenodd" clip-rule="evenodd" d="M108.765 5.30648C109.749 5.30648 110.537 4.50377 110.537 3.50038C110.537 2.49699 109.749 1.69427 108.765 1.69427C107.78 1.69427 106.993 2.49699 106.993 3.50038C106.993 4.50377 107.78 5.30648 108.765 5.30648Z" fill="#FC3055"/>
<path d="M159.332 32.1529H151.666C151.17 32.1529 150.977 31.5087 151.391 31.2356L174.746 15.8271C175.147 15.5624 175.655 15.9612 175.492 16.4136L160.803 57.2987C160.613 57.8262 159.832 57.6902 159.832 57.1296V32.6529C159.832 32.3768 159.608 32.1529 159.332 32.1529Z" fill="#E32E22"/>
<path d="M153.082 12.1817V7.88183H151.048V12.1817H150V7H154.138V12.1817H153.082Z" fill="#E32E22"/>
<path d="M157.096 9.8874C157.091 9.74693 157.065 9.62467 157.019 9.52062C156.978 9.41137 156.921 9.32293 156.849 9.25529C156.777 9.18246 156.695 9.13043 156.603 9.09922C156.51 9.0628 156.415 9.04459 156.318 9.04459C156.117 9.04459 155.943 9.12003 155.794 9.2709C155.65 9.41657 155.568 9.62207 155.547 9.8874H157.096ZM155.516 10.5273C155.532 10.8187 155.614 11.0502 155.763 11.2219C155.917 11.3935 156.117 11.4794 156.364 11.4794C156.528 11.4794 156.672 11.443 156.795 11.3701C156.924 11.2921 157.006 11.1854 157.042 11.0502H158.074C157.956 11.4456 157.751 11.7499 157.458 11.9632C157.165 12.1765 156.816 12.2832 156.41 12.2832C155.146 12.2832 154.515 11.586 154.515 10.1917C154.515 9.89521 154.556 9.62728 154.638 9.38796C154.72 9.14864 154.838 8.94314 154.992 8.77146C155.152 8.59978 155.344 8.46971 155.57 8.38127C155.796 8.28763 156.056 8.2408 156.348 8.2408C156.934 8.2408 157.376 8.43069 157.674 8.81048C157.977 9.19026 158.128 9.76254 158.128 10.5273H155.516Z" fill="#E32E22"/>
<path d="M160.339 11.4169C160.915 11.4169 161.202 11.0216 161.202 10.2308C161.202 9.8874 161.123 9.60907 160.963 9.39576C160.804 9.17726 160.599 9.068 160.347 9.068C160.106 9.068 159.903 9.16945 159.738 9.37235C159.579 9.57525 159.499 9.84058 159.499 10.1683C159.499 11.0007 159.779 11.4169 160.339 11.4169ZM158.552 14V8.34225H159.515L159.522 8.81048C159.754 8.43069 160.106 8.2408 160.578 8.2408C160.814 8.2408 161.033 8.28763 161.233 8.38127C161.439 8.47492 161.613 8.61018 161.757 8.78707C161.901 8.96395 162.014 9.17986 162.096 9.43478C162.178 9.68971 162.219 9.97845 162.219 10.301C162.219 10.5923 162.183 10.8603 162.111 11.1048C162.045 11.3441 161.945 11.5522 161.811 11.7291C161.677 11.906 161.513 12.0438 161.318 12.1427C161.128 12.2363 160.909 12.2832 160.663 12.2832C160.195 12.2832 159.82 12.0829 159.538 11.6823V14H158.552Z" fill="#E32E22"/>
<path d="M162.608 12.1817V8.34225H165.229C165.455 8.34225 165.646 8.36826 165.8 8.42029C165.954 8.46711 166.08 8.53214 166.177 8.61538C166.275 8.69863 166.344 8.79747 166.385 8.91193C166.426 9.02638 166.447 9.14604 166.447 9.2709C166.447 9.49981 166.388 9.6845 166.27 9.82497C166.157 9.96024 166.01 10.0539 165.83 10.1059C165.923 10.1267 166.013 10.1631 166.1 10.2152C166.187 10.262 166.265 10.3244 166.331 10.4025C166.403 10.4805 166.46 10.5767 166.501 10.6912C166.542 10.8004 166.562 10.9305 166.562 11.0814C166.562 11.2427 166.534 11.3909 166.478 11.5262C166.421 11.6615 166.334 11.7785 166.216 11.8774C166.098 11.971 165.941 12.0465 165.746 12.1037C165.556 12.1557 165.327 12.1817 165.06 12.1817H162.608ZM164.914 11.4638C165.35 11.4638 165.569 11.2895 165.569 10.9409C165.569 10.5975 165.371 10.4259 164.975 10.4259H163.563V11.4638H164.914ZM164.937 9.84177C165.101 9.84177 165.229 9.80795 165.322 9.74032C165.414 9.66749 165.461 9.58158 165.461 9.466C165.461 9.17466 165.278 9.02899 164.914 9.02899H163.563V9.84177H164.937Z" fill="#E32E22"/>
<path d="M167.963 8.34225V9.56745H169.226C169.663 9.56745 170.002 9.6793 170.244 9.90301C170.49 10.1215 170.613 10.4415 170.613 10.8629C170.613 11.2895 170.49 11.6172 170.244 11.8462C170.002 12.0699 169.663 12.1817 169.226 12.1817H166.984V8.34225H167.963ZM167.963 10.2932V11.4247H169.165C169.35 11.4247 169.494 11.3779 169.596 11.2843C169.699 11.1854 169.75 11.045 169.75 10.8629C169.75 10.6756 169.699 10.5351 169.596 10.4415C169.494 10.3426 169.35 10.2932 169.165 10.2932H167.963ZM170.937 12.1817V8.34225H171.939V12.1817H170.937Z" fill="#E32E22"/>
<path d="M174.967 9.8874C174.962 9.74693 174.937 9.62467 174.89 9.52062C174.849 9.41137 174.793 9.32293 174.721 9.25529C174.649 9.18246 174.567 9.13043 174.474 9.09922C174.382 9.0628 174.287 9.04459 174.189 9.04459C173.989 9.04459 173.814 9.12003 173.665 9.2709C173.521 9.41657 173.439 9.62207 173.419 9.8874H174.967ZM173.388 10.5273C173.403 10.8187 173.486 11.0502 173.634 11.2219C173.789 11.3935 173.989 11.4794 174.235 11.4794C174.4 11.4794 174.544 11.443 174.667 11.3701C174.795 11.2921 174.878 11.1854 174.914 11.0502H175.946C175.828 11.4456 175.622 11.7499 175.33 11.9632C175.037 12.1765 174.688 12.2832 174.282 12.2832C173.018 12.2832 172.386 11.586 172.386 10.1917C172.386 9.89521 172.427 9.62728 172.51 9.38796C172.592 9.14864 172.71 8.94314 172.864 8.77146C173.023 8.59978 173.216 8.46971 173.442 8.38127C173.668 8.28763 173.927 8.2408 174.22 8.2408C174.806 8.2408 175.247 8.43069 175.545 8.81048C175.848 9.19026 176 9.76254 176 10.5273H173.388Z" fill="#E32E22"/>
</svg>
