<svg width="24" height="24" viewBox="0 0 24 24" fill="none" xmlns="http://www.w3.org/2000/svg">
<path d="M8.5 17.7822V7.96525C8.5 7.55025 8.756 7.17825 9.144 7.03125L17.644 3.79325C18.299 3.54325 19 4.02725 19 4.72725V15.7762" stroke="#534A4A" stroke-width="1.5" stroke-linecap="round" stroke-linejoin="round"/>
<path d="M18.2678 14.0057C19.2441 14.982 19.2441 16.5649 18.2678 17.5412C17.2915 18.5175 15.7085 18.5175 14.7322 17.5412C13.7559 16.5649 13.7559 14.982 14.7322 14.0057C15.7085 13.0294 17.2915 13.0294 18.2678 14.0057" stroke="#534A4A" stroke-width="1.5" stroke-linecap="round" stroke-linejoin="round"/>
<path d="M7.76776 16.0057C8.74407 16.982 8.74407 18.5649 7.76776 19.5412C6.79145 20.5175 5.20854 20.5175 4.23223 19.5412C3.25592 18.5649 3.25592 16.982 4.23223 16.0057C5.20854 15.0294 6.79145 15.0294 7.76776 16.0057" stroke="#534A4A" stroke-width="1.5" stroke-linecap="round" stroke-linejoin="round"/>
</svg>
