<svg width="24" height="24" viewBox="0 0 24 24" fill="none" xmlns="http://www.w3.org/2000/svg">
<path d="M18.0556 14.9475H16.8935C16.5775 14.9473 16.2651 15.0151 15.9777 15.1464L11.3306 17.2638" stroke="#534A4A" stroke-width="1.5" stroke-linecap="round" stroke-linejoin="round"/>
<path d="M23.0002 7.8291H19.9447C18.9321 7.8291 18.1113 8.65025 18.1113 9.6632V14.5541C18.1113 15.5671 18.9321 16.3882 19.9447 16.3882H23.0002" stroke="#534A4A" stroke-width="1.5" stroke-linecap="round" stroke-linejoin="round"/>
<path d="M1 16.3882H4.05556C5.06808 16.3882 5.88889 15.5671 5.88889 14.5541V9.6632C5.88889 8.65025 5.06808 7.8291 4.05556 7.8291H1" stroke="#534A4A" stroke-width="1.5" stroke-linecap="round" stroke-linejoin="round"/>
<path d="M18.6063 8.35206L14.8209 6.68504C14.1401 6.38529 13.3542 6.44842 12.7299 6.85302L9.84685 8.72171C9.41358 9.00264 9.13526 9.46889 9.09351 9.98372C9.05176 10.4985 9.25131 11.0036 9.63364 11.3507V11.3507C10.1299 11.8003 10.8472 11.9087 11.4541 11.6258L13.1728 10.8225L14.381 11.9195C14.7341 12.2401 14.9455 12.6879 14.9685 13.1644C14.9916 13.6409 14.8245 14.107 14.504 14.4602C14.4667 14.5014 14.4275 14.5407 14.3865 14.5783L11.8262 16.9226C10.9848 17.693 9.69534 17.6959 8.85039 16.9293L7.31132 15.5328C6.93244 15.1963 6.45611 14.9896 5.95166 14.9427" stroke="#534A4A" stroke-width="1.5" stroke-linecap="round" stroke-linejoin="round"/>
<path d="M5.91357 9.11751L8.58238 8.15522C9.19618 7.93994 9.8738 8.00793 10.4326 8.34087" stroke="#534A4A" stroke-width="1.5" stroke-linecap="round" stroke-linejoin="round"/>
</svg>
