<svg width="24" height="24" viewBox="0 0 24 24" fill="none" xmlns="http://www.w3.org/2000/svg">
<path d="M10.499 21.006V17.5045C10.499 16.6758 11.1709 16.0039 11.9996 16.0039V16.0039C12.8284 16.0039 13.5003 16.6758 13.5003 17.5045V21.006" stroke="#534A4A" stroke-width="1.5" stroke-linecap="round" stroke-linejoin="round"/>
<path d="M6.99805 21.0044V11.5004C6.99805 10.8178 7.34623 10.1823 7.92143 9.81471L10.9227 7.89691C11.5796 7.47707 12.4206 7.47707 13.0776 7.89691L16.0788 9.81471C16.654 10.1823 17.0022 10.8178 17.0022 11.5004V21.0044" stroke="#534A4A" stroke-width="1.5" stroke-linecap="round" stroke-linejoin="round"/>
<path d="M12 2.99609H16.0017V5.49714H12" stroke="#534A4A" stroke-width="1.5" stroke-linecap="round" stroke-linejoin="round"/>
<path d="M12.0002 7.581V2.99609" stroke="#534A4A" stroke-width="1.5" stroke-linecap="round" stroke-linejoin="round"/>
<path d="M12.0002 11.3331C11.908 11.3337 11.8337 11.4087 11.8341 11.5009C11.8345 11.593 11.9094 11.6675 12.0015 11.6673C12.0937 11.6671 12.1683 11.5924 12.1683 11.5002C12.1685 11.4556 12.1509 11.4128 12.1193 11.3814C12.0877 11.35 12.0447 11.3326 12.0002 11.3331" stroke="#534A4A" stroke-width="1.5" stroke-linecap="round" stroke-linejoin="round"/>
<path d="M17.002 14.4572H19.0028" stroke="#534A4A" stroke-width="1.5" stroke-linecap="round" stroke-linejoin="round"/>
<path d="M17.002 17.4572H19.0028" stroke="#534A4A" stroke-width="1.5" stroke-linecap="round" stroke-linejoin="round"/>
<path d="M4.99707 14.4572H6.9979" stroke="#534A4A" stroke-width="1.5" stroke-linecap="round" stroke-linejoin="round"/>
<path d="M4.99707 17.4572H6.9979" stroke="#534A4A" stroke-width="1.5" stroke-linecap="round" stroke-linejoin="round"/>
<path d="M1.99609 21.0041H22.0044" stroke="#534A4A" stroke-width="1.5" stroke-linecap="round" stroke-linejoin="round"/>
<path d="M2.99609 21.0042V12.0004C2.99609 11.4479 3.444 11 3.99651 11H6.99776" stroke="#534A4A" stroke-width="1.5" stroke-linecap="round" stroke-linejoin="round"/>
<path d="M21.0036 21.0042V12.0004C21.0036 11.4479 20.5557 11 20.0032 11H17.002" stroke="#534A4A" stroke-width="1.5" stroke-linecap="round" stroke-linejoin="round"/>
</svg>
