<svg width="24" height="24" viewBox="0 0 24 24" fill="none" xmlns="http://www.w3.org/2000/svg">
<path d="M11.1245 12.005H15.3023" stroke="#534A4A" stroke-width="1.5" stroke-linecap="round" stroke-linejoin="round"/>
<path d="M11.1245 15.9966L17.127 16.0016" stroke="#534A4A" stroke-width="1.5" stroke-linecap="round" stroke-linejoin="round"/>
<rect x="2.99658" y="2.99622" width="18.0075" height="18.0075" rx="2" stroke="#534A4A" stroke-width="1.5" stroke-linecap="round" stroke-linejoin="round"/>
<path d="M11.1245 7.99337H17.127" stroke="#534A4A" stroke-width="1.5" stroke-linecap="round" stroke-linejoin="round"/>
<path d="M7.33905 8.99341H6.53105V7.35341L6.07905 7.80141L5.62305 7.32541L6.64305 6.32541H7.33905V8.99341Z" fill="#534A4A"/>
<path d="M7.96705 13.4967H5.78705V12.8687C6.12038 12.634 6.36438 12.4607 6.51905 12.3487C6.67371 12.2367 6.80305 12.1354 6.90705 12.0447C7.01105 11.954 7.07238 11.8887 7.09105 11.8487C7.11238 11.8087 7.12305 11.762 7.12305 11.7087C7.12305 11.6474 7.09371 11.598 7.03505 11.5607C6.97638 11.5207 6.90305 11.5007 6.81505 11.5007C6.56438 11.5007 6.32971 11.5927 6.11105 11.7767L5.67105 11.2407C5.81505 11.086 5.98705 10.9727 6.18705 10.9007C6.38971 10.826 6.59371 10.7887 6.79905 10.7887C7.14305 10.7887 7.41905 10.8754 7.62705 11.0487C7.83771 11.2194 7.94305 11.4394 7.94305 11.7087C7.94305 11.8954 7.88038 12.0714 7.75505 12.2367C7.62971 12.402 7.41105 12.5874 7.09905 12.7927H7.96705V13.4967Z" fill="#534A4A"/>
<path d="M6.82305 18.048C6.56971 18.048 6.34305 18.0107 6.14305 17.936C5.94571 17.8587 5.78838 17.7573 5.67105 17.632L6.06705 17.08C6.16305 17.1627 6.27905 17.2267 6.41505 17.272C6.55105 17.3147 6.67638 17.336 6.79105 17.336C6.91638 17.336 7.01238 17.3187 7.07905 17.284C7.14571 17.2493 7.17905 17.2067 7.17905 17.156C7.17905 17.1053 7.15105 17.0693 7.09505 17.048C7.04171 17.024 6.93238 17.012 6.76705 17.012C6.56171 17.012 6.43238 17.0147 6.37905 17.02V16.304C6.41371 16.3067 6.54305 16.308 6.76705 16.308C7.01238 16.308 7.13505 16.264 7.13505 16.176C7.13505 16.0613 7.00305 16.004 6.73905 16.004C6.49105 16.004 6.27371 16.0813 6.08705 16.236L5.70705 15.732C5.97371 15.4387 6.34705 15.292 6.82705 15.292C7.18705 15.292 7.46171 15.3587 7.65105 15.492C7.84305 15.6253 7.93905 15.8053 7.93905 16.032C7.93905 16.1733 7.88305 16.3013 7.77105 16.416C7.66171 16.528 7.52171 16.5973 7.35105 16.624C7.51371 16.6427 7.65905 16.708 7.78705 16.82C7.91771 16.932 7.98305 17.0747 7.98305 17.248C7.98305 17.4853 7.87638 17.6787 7.66305 17.828C7.44971 17.9747 7.16971 18.048 6.82305 18.048Z" fill="#534A4A"/>
</svg>
