<svg width="24" height="24" viewBox="0 0 24 24" fill="none" xmlns="http://www.w3.org/2000/svg">
<path fill-rule="evenodd" clip-rule="evenodd" d="M9.30034 17.2857L11.1359 19.7337C11.5679 20.3097 12.4319 20.3097 12.8639 19.7337L14.6994 17.2857H17.7599C19.3506 17.2857 20.6399 15.9965 20.6399 14.4057V5.76574C20.6399 4.17502 19.3506 2.88574 17.7599 2.88574H6.23986C4.64914 2.88574 3.35986 4.17502 3.35986 5.76574V14.4057C3.35986 15.9965 4.64914 17.2857 6.23986 17.2857H9.30034Z" stroke="#534A4A" stroke-width="1.5" stroke-linecap="round" stroke-linejoin="round"/>
<path fill-rule="evenodd" clip-rule="evenodd" d="M11.999 12.8702L13.9194 13.9242C14.2927 14.1292 14.7302 13.7982 14.6584 13.3632L14.2918 11.1302L15.8454 9.55021C16.1479 9.24221 15.9814 8.70521 15.563 8.64221L13.4168 8.31621L12.4566 6.28321C12.27 5.88721 11.73 5.88721 11.5424 6.28321L10.5832 8.31621L8.43696 8.64221C8.01863 8.70521 7.85206 9.24221 8.15456 9.55021L9.70825 11.1302L9.3416 13.3632C9.26981 13.7982 9.70729 14.1292 10.0806 13.9242L12.001 12.8702H11.999V12.8702Z" stroke="#534A4A" stroke-width="1.5" stroke-linecap="round" stroke-linejoin="round"/>
</svg>
