<svg width="24" height="24" fill="none" xmlns="http://www.w3.org/2000/svg">
  <path clip-rule="evenodd" d="M15 10s3.5-2.88 3.5-5.5a3.5 3.5 0 0 0-7 0C11.5 7.13 15 10 15 10Z" stroke="#534A4A" stroke-width="1.5" stroke-linecap="round" stroke-linejoin="round"/>
  <path d="M15 4.35a.25.25 0 1 1-.25.25c0-.14.11-.25.25-.25M11.53 4.03a9 9 0 1 0 6.5 2.3" stroke="#534A4A" stroke-width="1.5" stroke-linecap="round" stroke-linejoin="round"/>
  <path d="M8 21.07V21c0-2 4-1.77 4-4 0-2-3-2-3-5 0-2.83-2-3-5-3h-.06M17.97 19.72c-.15-.06-.3-.12-.44-.2a3.01 3.01 0 0 1 3.04-5.2c.1.06.2.14.29.21" stroke="#534A4A" stroke-width="1.5" stroke-linecap="round" stroke-linejoin="round"/>
</svg>
